<?xml version="1.0" standalone="no"?>
<!DOCTYPE svg PUBLIC "-//W3C//DTD SVG 20010904//EN"
 "http://www.w3.org/TR/2001/REC-SVG-20010904/DTD/svg10.dtd">
<svg version="1.0" xmlns="http://www.w3.org/2000/svg"
 width="4096.000000pt" height="4096.000000pt" viewBox="0 0 4096.000000 4096.000000"
 preserveAspectRatio="xMidYMid meet">

<g transform="translate(0.000000,4096.000000) scale(0.100000,-0.100000)"
fill="#000000" stroke="none">
<path d="M20240 36595 l0 -165 -185 0 -185 0 0 -235 0 -235 183 -2 182 -3 3
-138 3 -137 -28 -11 c-101 -41 -205 -100 -273 -155 l-79 -64 -68 9 c-195 24
-396 -63 -505 -218 l-16 -22 -50 31 c-209 128 -479 96 -652 -79 -36 -36 -80
-94 -98 -127 l-32 -62 -61 25 c-281 114 -599 -32 -698 -319 -11 -31 -22 -81
-26 -110 l-7 -54 -66 17 c-264 69 -545 -82 -634 -341 -19 -52 -23 -87 -23
-177 l0 -113 -61 0 c-94 0 -206 -41 -306 -112 -13 -10 -25 -4 -70 38 -100 91
-233 143 -364 144 -71 0 -196 -34 -262 -72 -76 -43 -160 -130 -201 -208 -19
-36 -35 -66 -36 -67 0 -1 -35 9 -76 24 -145 51 -325 29 -455 -55 -140 -91
-243 -262 -244 -406 0 -37 -1 -38 -27 -32 -16 4 -64 9 -108 12 -144 11 -288
-40 -393 -139 -69 -66 -106 -120 -139 -204 -24 -61 -27 -82 -27 -195 l-1 -128
-60 0 c-185 0 -371 -121 -455 -295 -65 -133 -74 -257 -29 -399 10 -33 17 -61
16 -62 -1 -1 -27 -12 -57 -24 -161 -63 -282 -197 -325 -361 -20 -73 -19 -212
1 -280 20 -68 55 -137 90 -178 14 -18 25 -33 23 -35 -2 -1 -26 -15 -54 -31
-80 -46 -124 -85 -176 -158 -72 -102 -94 -177 -93 -312 0 -84 5 -123 20 -167
l21 -57 -48 -47 c-90 -89 -139 -210 -139 -349 0 -95 19 -176 62 -264 24 -51
28 -68 20 -80 -88 -124 -108 -218 -77 -364 49 -233 259 -462 497 -543 145 -50
297 -42 436 21 l54 25 66 -39 c82 -47 178 -86 268 -107 74 -18 269 -24 340
-12 l41 8 5 -64 c14 -169 137 -293 300 -304 62 -4 67 -6 58 -22 -18 -33 -11
-105 13 -151 17 -32 37 -51 73 -70 l49 -25 -37 -155 c-20 -85 -37 -158 -37
-164 -1 -5 65 -46 145 -90 194 -105 181 -95 161 -138 -43 -89 -2 -208 86 -254
57 -29 112 -19 254 46 1264 579 2576 913 3983 1016 286 20 827 37 1000 31 80
-3 215 -8 300 -12 1468 -53 2959 -405 4295 -1014 143 -65 190 -82 227 -82 56
0 99 22 141 75 38 47 49 136 23 188 -9 18 -16 35 -16 40 0 4 71 47 158 95 86
48 159 88 161 90 2 1 -15 76 -36 167 l-39 163 44 18 c57 24 94 79 100 150 2
30 -1 63 -7 75 -11 20 -10 21 38 21 74 0 157 35 217 92 62 58 95 128 102 215
l5 63 41 -8 c71 -12 266 -6 340 12 89 21 206 68 277 112 l57 34 53 -25 c206
-94 417 -66 640 85 201 137 341 431 300 630 -10 47 -42 115 -82 171 -9 12 -5
29 19 80 43 88 62 169 62 264 0 139 -49 260 -139 349 l-48 47 20 57 c25 73 33
194 18 275 -28 143 -131 286 -257 357 -32 18 -61 35 -63 36 -2 2 9 17 23 35
35 41 70 110 90 178 20 68 21 207 1 280 -43 164 -164 298 -325 361 -30 12 -56
23 -57 24 -1 1 7 31 19 66 28 86 30 232 4 310 -45 134 -135 248 -250 315 -65
38 -166 65 -243 65 l-62 0 6 98 c10 172 -35 290 -157 412 -83 84 -148 120
-257 146 -66 16 -183 15 -255 -2 -27 -6 -28 -5 -28 32 -1 144 -104 315 -244
406 -130 84 -310 106 -455 55 -41 -15 -76 -25 -76 -24 -1 1 -17 31 -36 67
-158 300 -570 370 -823 139 l-55 -50 -68 41 c-85 51 -177 80 -257 80 l-61 0 0
112 c0 91 -4 126 -23 178 -89 259 -370 410 -634 341 l-66 -17 -7 54 c-43 347
-401 559 -724 429 l-61 -25 -32 62 c-18 33 -62 91 -98 127 -173 175 -443 207
-652 79 l-50 -31 -16 23 c-50 76 -199 181 -287 203 -66 16 -154 22 -218 14
l-67 -8 -82 65 c-74 60 -187 124 -268 153 l-31 10 3 138 3 138 183 3 182 2 0
235 0 235 -185 0 -185 0 0 165 0 165 -240 0 -240 0 0 -165z m388 -102 l2 -163
180 0 180 0 0 -135 0 -135 -180 0 -180 0 2 -230 3 -231 83 -28 c111 -39 181
-82 271 -167 l76 -71 41 12 c166 49 324 8 437 -115 29 -31 65 -81 81 -111 16
-29 30 -56 32 -58 2 -2 31 20 66 49 35 29 92 67 128 84 60 29 73 31 170 31 97
0 110 -2 172 -32 116 -55 200 -160 244 -308 10 -33 19 -62 20 -63 1 -2 31 15
65 39 150 101 299 114 449 39 191 -97 273 -289 224 -530 l-7 -34 34 22 c105
69 198 102 289 102 165 0 319 -101 393 -257 54 -117 48 -248 -18 -405 -6 -15
-3 -16 27 -7 182 53 335 17 461 -108 57 -56 59 -57 73 -38 83 117 171 191 257
217 69 21 222 15 290 -11 113 -44 213 -166 262 -321 10 -30 19 -56 20 -58 2
-2 31 15 64 37 175 112 376 101 525 -30 122 -108 166 -241 141 -432 l-7 -57
88 42 c87 42 91 43 194 43 97 0 110 -2 173 -32 236 -112 322 -376 201 -615
-13 -26 -24 -49 -24 -52 0 -2 32 5 72 15 94 25 208 25 281 0 199 -69 325 -278
288 -478 -11 -62 -45 -140 -90 -208 l-20 -31 87 -18 c250 -51 385 -199 383
-420 -1 -147 -41 -230 -168 -343 l-74 -67 68 -19 c163 -44 286 -135 339 -249
26 -57 29 -73 29 -173 0 -106 -1 -113 -37 -187 l-36 -76 53 -43 c115 -92 164
-189 164 -324 1 -96 -26 -179 -86 -275 l-42 -64 34 -38 c19 -20 47 -61 62 -90
26 -48 28 -62 28 -159 0 -105 0 -106 -44 -194 -34 -69 -61 -105 -120 -164
-206 -206 -441 -253 -661 -134 l-67 36 -63 -43 c-148 -100 -283 -143 -455
-142 -100 0 -277 29 -347 57 -15 6 -12 -5 13 -60 58 -123 49 -208 -30 -286
-65 -65 -143 -85 -221 -55 -19 8 -127 55 -240 106 -1309 589 -2731 953 -4200
1074 -656 55 -1441 55 -2100 0 -1149 -94 -2246 -332 -3325 -721 -314 -113
-591 -228 -1065 -439 -119 -54 -200 -44 -273 31 -76 78 -85 170 -27 292 25 54
27 64 12 58 -70 -28 -247 -57 -347 -57 -171 -1 -307 42 -454 142 l-62 42 -72
-36 c-90 -44 -140 -55 -244 -56 -192 0 -381 107 -494 284 -62 95 -82 158 -83
261 -1 108 17 163 79 240 l43 52 -37 59 c-63 101 -84 160 -89 255 -6 110 13
178 72 255 24 33 67 76 94 97 l51 38 -37 77 c-36 74 -37 81 -37 187 0 105 2
114 33 177 57 116 176 203 335 245 l66 17 -89 86 c-125 120 -145 164 -145 325
0 116 1 123 33 187 59 121 175 200 344 234 l87 18 -20 31 c-45 68 -79 146 -90
208 -37 200 89 409 288 478 73 25 187 25 281 0 l71 -19 -16 37 c-52 117 -65
174 -60 264 4 75 10 99 40 161 45 90 122 165 214 209 63 30 76 32 173 32 101
0 108 -2 196 -41 l91 -41 -8 36 c-18 72 -12 203 12 267 57 152 179 255 339
284 106 19 206 -4 310 -71 33 -21 62 -39 65 -39 2 0 11 26 20 58 44 150 147
278 262 323 68 26 221 32 290 11 86 -26 174 -100 257 -217 14 -19 16 -18 73
38 126 125 279 161 461 108 30 -9 33 -8 27 7 -66 157 -72 288 -18 405 79 167
247 269 422 254 88 -7 122 -19 215 -72 l79 -44 -7 37 c-4 20 -9 69 -13 107
-18 216 132 410 352 455 113 23 220 -2 334 -79 34 -24 64 -41 65 -39 1 1 10
30 20 63 46 152 118 245 234 302 73 37 80 38 181 38 98 0 111 -2 171 -31 36
-17 93 -55 128 -84 35 -29 64 -51 66 -49 2 2 16 29 32 58 93 174 267 269 444
242 37 -6 78 -15 91 -20 21 -7 33 0 100 63 90 85 160 128 271 167 l83 28 3
231 2 230 -180 0 -180 0 0 135 0 135 180 0 180 0 0 158 c0 87 3 162 7 166 4 3
70 5 147 4 l141 -3 3 -162z m712 -7317 c1237 -94 2265 -307 3385 -701 423
-149 1140 -450 1173 -493 17 -22 15 -77 -3 -92 -11 -9 -33 -11 -73 -7 -54 6
-58 5 -72 -19 -12 -21 -47 -38 -180 -86 -91 -33 -169 -63 -173 -68 -5 -4 15
-97 43 -206 51 -195 52 -198 35 -233 -14 -29 -14 -36 -3 -40 7 -2 28 -19 46
-37 42 -42 45 -93 6 -123 -15 -12 -39 -21 -54 -21 -16 0 -102 33 -192 74 -821
373 -1707 653 -2591 821 -315 59 -618 105 -697 105 -25 0 -50 4 -56 9 -10 10
-321 43 -649 68 -281 22 -1263 25 -1540 5 -202 -14 -527 -45 -715 -68 -1097
-132 -2234 -445 -3245 -894 -77 -34 -174 -78 -217 -96 -84 -37 -111 -36 -142
8 -27 39 -21 82 18 116 19 16 40 32 46 34 10 3 8 12 -4 37 -17 32 -17 36 34
233 28 110 48 204 43 208 -4 4 -77 33 -162 64 -180 66 -188 70 -196 96 -6 17
-12 19 -64 14 -66 -7 -91 8 -91 55 0 51 4 53 305 186 1261 556 2588 900 3950
1024 190 17 300 25 640 45 170 10 1204 -3 1395 -18z"/>
<path d="M19633 35226 c-130 -42 -213 -154 -213 -287 0 -96 23 -154 89 -220
66 -66 124 -89 221 -89 117 0 223 70 274 179 30 67 29 189 -2 253 -30 60 -90
121 -149 149 -56 27 -161 34 -220 15z m187 -77 c60 -27 88 -54 116 -114 56
-119 10 -255 -106 -315 -118 -60 -264 -11 -321 107 -59 121 -2 274 121 327 50
22 136 20 190 -5z"/>
<path d="M21143 35226 c-130 -43 -223 -181 -210 -315 10 -115 68 -200 169
-251 50 -24 74 -30 128 -30 97 0 155 23 221 89 66 66 89 124 89 221 0 117 -71
225 -179 273 -57 25 -162 31 -218 13z m185 -72 c156 -65 197 -270 77 -389
-150 -150 -406 -44 -405 167 0 57 27 127 63 167 57 62 184 89 265 55z"/>
<path d="M18830 35083 c-63 -23 -151 -113 -173 -177 -9 -27 -17 -80 -17 -116
0 -117 70 -223 179 -274 67 -30 189 -29 253 2 184 91 234 326 103 480 -20 22
-63 54 -97 71 -52 26 -72 31 -132 30 -39 0 -91 -8 -116 -16z m220 -73 c145
-75 176 -265 60 -380 -94 -95 -246 -94 -337 1 -105 111 -83 287 47 366 29 18
64 34 79 36 42 7 113 -3 151 -23z"/>
<path d="M21882 35070 c-113 -57 -167 -145 -167 -275 0 -94 22 -150 86 -214
64 -64 120 -86 214 -86 130 0 218 54 275 167 24 50 30 74 30 128 0 97 -23 155
-89 221 -66 66 -124 89 -221 89 -54 0 -78 -6 -128 -30z m251 -68 c111 -60 154
-199 97 -312 -74 -145 -265 -175 -380 -60 -92 92 -95 236 -7 328 81 84 186
100 290 44z"/>
<path d="M18100 34811 c-130 -40 -220 -159 -220 -292 0 -36 7 -86 16 -112 23
-68 91 -138 165 -172 55 -24 71 -27 138 -23 96 6 167 41 223 111 159 201 14
500 -240 496 -31 0 -68 -4 -82 -8z m187 -82 c53 -25 106 -86 121 -138 49 -163
-60 -313 -228 -312 -214 1 -314 259 -158 408 18 18 49 39 68 47 52 23 145 20
197 -5z"/>
<path d="M22663 34800 c-237 -94 -256 -431 -32 -555 49 -27 63 -30 144 -30 78
0 97 4 141 27 224 118 219 432 -9 550 -61 31 -175 35 -244 8z m205 -66 c70
-29 131 -105 146 -183 9 -51 -3 -106 -38 -163 -81 -134 -271 -149 -376 -31
-135 154 -30 393 173 393 32 0 74 -7 95 -16z"/>
<path d="M20400 34487 c-136 -38 -223 -152 -224 -292 -2 -149 90 -265 239
-302 60 -15 70 -15 130 0 149 37 241 153 239 302 0 83 -24 142 -79 203 -72 80
-203 118 -305 89z m163 -73 c57 -19 128 -93 145 -152 34 -112 -16 -228 -123
-285 -84 -45 -209 -23 -277 50 -92 97 -90 232 7 328 72 73 152 92 248 59z"/>
<path d="M17324 34306 c-189 -88 -238 -331 -99 -484 20 -23 62 -54 93 -69 48
-24 70 -28 137 -28 67 0 88 5 130 27 111 59 169 154 169 278 0 122 -58 215
-166 269 -81 41 -185 44 -264 7z m236 -66 c162 -83 172 -318 16 -414 -129 -80
-304 -18 -352 126 -66 200 148 384 336 288z"/>
<path d="M23372 34299 c-108 -54 -166 -147 -166 -269 0 -124 58 -219 169 -278
42 -22 63 -27 130 -27 67 0 89 4 137 28 150 74 215 249 146 398 -53 117 -150
179 -279 179 -65 0 -85 -4 -137 -31z m202 -43 c175 -53 232 -268 105 -395
-143 -143 -385 -58 -406 143 -12 118 66 228 182 257 47 11 68 10 119 -5z"/>
<path d="M19540 34279 c-648 -67 -1221 -328 -1663 -759 -229 -222 -393 -439
-545 -720 -171 -315 -323 -812 -357 -1167 l-7 -71 58 -29 c75 -36 140 -101
188 -186 l38 -67 67 0 c181 0 304 -75 382 -233 82 -169 103 -388 47 -507 -30
-65 -80 -119 -155 -166 -58 -38 -172 -86 -245 -104 -27 -7 -48 -18 -48 -24 0
-28 80 -146 141 -207 46 -46 89 -78 142 -104 70 -34 87 -39 176 -43 173 -8
291 36 406 152 75 76 114 144 140 242 21 83 19 124 -12 190 -25 53 -28 70 -28
169 0 103 2 114 32 178 40 84 126 172 205 211 319 155 678 -117 619 -470 l-13
-77 38 -76 c67 -137 203 -248 344 -280 66 -15 197 -13 265 4 137 36 246 129
314 267 35 72 77 196 68 204 -2 2 -57 8 -123 14 -182 17 -301 63 -372 144 -74
84 -105 190 -106 356 0 181 36 292 123 373 57 54 101 77 198 107 71 21 73 23
83 63 58 226 154 314 400 361 47 9 96 19 109 22 21 4 8 14 -75 54 -123 61
-193 121 -231 198 -25 51 -28 68 -28 157 0 93 2 105 33 166 l32 66 0 205 0
205 -32 64 c-31 60 -33 71 -33 164 0 93 2 104 33 164 l32 64 0 205 0 205 -32
65 c-28 57 -33 78 -36 164 l-4 98 -242 -1 c-132 -1 -279 -6 -326 -10z m424
-85 c43 -6 46 -8 46 -38 0 -43 23 -123 49 -174 21 -40 22 -54 19 -230 -4 -182
-4 -189 -33 -252 -27 -59 -29 -75 -30 -175 0 -101 2 -115 29 -175 27 -58 30
-77 34 -188 3 -116 2 -123 -15 -118 -40 12 -321 37 -520 46 -496 22 -1042 -35
-1493 -156 -237 -64 -516 -167 -691 -254 -94 -48 -93 -53 -23 101 390 854
1134 1435 2026 1579 204 33 490 49 602 34z"/>
<path d="M20850 34288 c0 -2 -2 -46 -3 -98 -2 -85 -6 -103 -34 -161 l-33 -66
0 -205 0 -205 33 -64 c30 -60 32 -71 32 -165 0 -94 -2 -104 -34 -167 l-34 -67
7 -210 c7 -198 9 -213 34 -268 38 -83 43 -204 11 -287 -33 -89 -107 -158 -238
-222 -87 -43 -101 -53 -80 -57 13 -3 62 -13 109 -22 162 -31 254 -79 315 -162
31 -43 75 -148 89 -214 5 -22 16 -29 78 -48 98 -30 142 -53 199 -107 87 -81
123 -191 122 -373 -1 -330 -132 -468 -477 -500 -66 -6 -121 -12 -123 -14 -9
-8 33 -132 68 -204 68 -138 177 -231 314 -267 68 -17 199 -19 265 -4 141 32
277 143 345 281 l38 77 -13 80 c-40 243 117 461 360 503 186 32 371 -65 457
-240 37 -74 38 -79 38 -186 0 -100 -3 -117 -27 -170 -32 -66 -34 -107 -13
-190 26 -98 65 -166 140 -242 115 -116 233 -160 406 -152 89 4 106 9 176 43
53 26 96 58 142 104 60 60 141 179 141 206 0 6 -21 17 -47 23 -77 21 -189 69
-246 106 -74 47 -125 101 -156 166 -24 50 -26 66 -26 175 1 94 6 137 23 198
34 119 82 206 146 265 73 66 143 93 263 100 l93 5 37 66 c46 83 112 148 187
184 l58 29 -7 71 c-3 40 -18 133 -31 207 -121 657 -395 1202 -822 1634 -461
466 -1045 738 -1731 806 -87 8 -550 15 -551 8z m645 -113 c954 -125 1719 -700
2135 -1607 28 -60 50 -113 50 -119 0 -5 -41 11 -91 37 -401 201 -933 339
-1506 389 -334 30 -946 13 -1176 -31 l-28 -6 3 124 c4 111 7 130 34 188 26 59
29 75 29 175 0 101 -3 116 -30 175 -29 64 -29 69 -33 252 -3 176 -2 190 19
230 27 52 49 131 49 175 0 28 4 32 33 37 61 9 393 -4 512 -19z"/>
<path d="M16027 33736 c-214 -77 -276 -345 -116 -505 65 -65 119 -86 219 -86
69 0 93 5 127 23 111 58 173 157 173 273 0 36 -8 88 -17 115 -23 67 -110 154
-177 177 -59 20 -156 21 -209 3z m216 -84 c112 -60 155 -198 97 -312 -91 -176
-343 -173 -426 4 -41 88 -29 183 32 254 78 92 189 112 297 54z"/>
<path d="M24720 33733 c-63 -23 -152 -114 -173 -177 -53 -154 11 -311 156
-388 34 -18 58 -23 127 -23 98 0 158 23 220 85 61 61 85 122 85 215 0 67 -4
89 -28 137 -30 62 -74 106 -140 140 -56 29 -183 35 -247 11z m215 -72 c45 -20
101 -78 121 -127 35 -84 2 -211 -70 -271 -92 -75 -230 -71 -314 10 -116 111
-98 296 36 374 78 46 144 50 227 14z"/>
<path d="M16793 33672 c-131 -47 -205 -153 -206 -293 0 -113 64 -218 166 -271
30 -15 66 -23 125 -26 77 -4 87 -2 147 27 69 34 112 78 147 151 32 64 31 176
0 245 -66 144 -235 219 -379 167z m223 -88 c188 -116 128 -402 -92 -438 -119
-20 -251 78 -270 200 -14 99 48 212 141 256 62 29 158 21 221 -18z"/>
<path d="M23995 33681 c-88 -23 -169 -92 -207 -176 -26 -58 -31 -166 -9 -228
23 -66 84 -132 155 -167 61 -31 71 -32 148 -28 95 5 141 24 202 84 148 144
106 399 -79 490 -59 28 -155 40 -210 25z m170 -80 c23 -10 59 -39 82 -65 119
-135 53 -339 -126 -386 -176 -46 -339 138 -277 313 46 127 200 194 321 138z"/>
<path d="M20372 33613 c-23 -8 -66 -37 -96 -64 -71 -64 -100 -130 -100 -224 0
-94 29 -160 100 -224 155 -142 393 -93 482 99 35 74 36 172 3 248 -30 66 -113
144 -177 166 -59 20 -155 19 -212 -1z m223 -81 c157 -85 164 -309 14 -409 -38
-25 -51 -28 -129 -28 -78 0 -91 3 -129 28 -112 74 -142 223 -68 334 45 68 112
103 197 103 52 0 75 -6 115 -28z"/>
<path d="M15277 33443 c-63 -21 -141 -92 -175 -157 -36 -69 -38 -188 -5 -256
36 -73 79 -117 148 -151 60 -29 70 -31 147 -27 99 5 145 26 207 93 58 63 82
121 83 200 1 124 -56 221 -163 279 -67 37 -169 45 -242 19z m191 -69 c168 -69
198 -301 54 -411 -157 -119 -382 -4 -382 196 0 160 179 277 328 215z"/>
<path d="M25489 33446 c-135 -48 -211 -158 -210 -301 0 -89 29 -152 97 -214
64 -59 124 -81 215 -81 219 0 365 241 265 439 -67 131 -236 204 -367 157z
m217 -92 c131 -80 152 -254 45 -365 -115 -119 -305 -91 -380 56 -62 120 -7
273 119 330 58 25 157 16 216 -21z"/>
<path d="M14555 32926 c-233 -111 -237 -440 -7 -553 48 -24 69 -28 137 -28 67
0 88 5 130 27 109 58 169 155 169 273 0 86 -14 131 -64 194 -58 73 -140 111
-239 111 -59 0 -87 -5 -126 -24z m235 -66 c21 -11 54 -38 73 -60 125 -146 29
-374 -163 -388 -73 -5 -122 11 -172 56 -76 69 -101 153 -74 247 42 142 204
212 336 145z"/>
<path d="M26141 32919 c-68 -34 -130 -101 -152 -166 -22 -62 -17 -170 9 -228
64 -140 219 -213 365 -171 221 64 294 338 134 505 -62 64 -125 91 -218 91 -65
0 -85 -4 -138 -31z m208 -45 c74 -22 134 -84 157 -159 27 -94 2 -178 -74 -247
-50 -45 -99 -61 -172 -56 -192 14 -288 242 -163 388 68 79 152 104 252 74z"/>
<path d="M16435 32927 c-90 -30 -153 -83 -196 -167 -20 -37 -24 -60 -24 -130
0 -73 4 -92 27 -136 77 -147 253 -210 398 -142 109 51 172 143 178 263 5 90
-22 164 -80 224 -76 80 -210 118 -303 88z m186 -84 c170 -87 179 -322 15 -418
-158 -93 -356 21 -356 205 0 179 182 293 341 213z"/>
<path d="M24353 32922 c-136 -49 -213 -154 -213 -291 0 -82 24 -143 81 -205
64 -70 130 -100 224 -100 116 0 217 62 273 168 23 44 27 63 27 136 0 73 -4 92
-27 136 -71 135 -232 204 -365 156z m215 -89 c103 -63 141 -198 88 -307 -61
-125 -212 -171 -332 -101 -165 96 -155 330 16 418 48 25 63 28 118 24 46 -4
75 -12 110 -34z"/>
<path d="M20427 32759 c-111 -17 -210 -108 -242 -222 -40 -142 28 -288 163
-354 118 -58 269 -29 357 69 57 63 79 120 79 208 0 123 -59 217 -167 269 -69
33 -119 41 -190 30z m159 -87 c106 -54 156 -172 122 -286 -17 -56 -100 -141
-153 -155 -98 -27 -172 -7 -241 63 -58 60 -80 120 -71 191 23 167 198 261 343
187z"/>
<path d="M15890 32668 c-455 -246 -704 -418 -949 -653 -196 -189 -344 -394
-465 -647 -178 -369 -266 -747 -330 -1423 l-6 -60 66 -29 c86 -39 160 -113
212 -213 128 -251 132 -449 12 -587 -41 -46 -132 -111 -229 -164 l-74 -40 83
-27 c130 -40 216 -51 300 -36 246 44 430 263 430 513 0 62 -3 71 -40 125 -161
229 -63 554 197 654 264 101 561 -80 590 -358 5 -48 11 -58 66 -113 116 -116
284 -175 432 -152 277 43 455 264 455 566 l0 58 -27 -5 c-16 -4 -79 -14 -142
-23 -192 -29 -320 4 -416 107 -134 143 -197 463 -123 622 32 68 102 139 185
187 l60 35 5 95 c5 92 8 102 65 238 3 6 -1 12 -9 12 -8 0 -51 18 -97 40 -188
91 -271 241 -250 451 18 172 153 305 374 364 l65 18 -88 82 c-104 98 -138 158
-156 272 l-12 78 -49 27 c-28 15 -52 27 -55 27 -3 0 -39 -19 -80 -41z m100
-108 c0 -51 40 -159 84 -224 l43 -65 -55 -28 c-153 -77 -272 -270 -272 -440 0
-57 -2 -63 -22 -68 -600 -142 -884 -245 -1129 -409 -46 -30 -85 -54 -87 -51
-7 6 94 190 156 284 191 290 491 571 858 803 152 97 406 238 416 231 5 -2 8
-17 8 -33z"/>
<path d="M24919 32695 c-43 -14 -45 -16 -41 -48 6 -51 -15 -146 -45 -206 -18
-35 -57 -82 -114 -135 l-86 -81 98 -32 c209 -68 314 -177 339 -349 20 -143
-27 -283 -123 -370 -49 -44 -194 -124 -225 -124 -8 0 -12 -6 -9 -12 52 -119
60 -148 65 -238 l5 -95 60 -35 c80 -46 149 -114 183 -181 24 -46 28 -69 32
-154 9 -225 -91 -457 -234 -541 -93 -55 -242 -65 -417 -28 -38 8 -73 14 -78
14 -14 0 -11 -108 6 -194 22 -115 66 -199 149 -282 82 -81 150 -118 265 -141
157 -33 337 25 458 145 55 56 59 62 69 129 21 131 86 233 196 303 228 148 541
46 638 -207 51 -133 32 -289 -50 -406 -37 -54 -40 -63 -40 -125 0 -250 184
-469 430 -513 84 -15 170 -4 300 36 l83 27 -74 40 c-161 87 -242 160 -288 258
-22 47 -26 68 -25 150 0 80 5 110 32 189 46 132 96 223 157 284 44 44 75 63
183 113 1 0 -5 70 -13 155 -58 580 -153 961 -330 1324 -221 453 -560 798
-1102 1123 -92 55 -400 223 -406 221 -1 0 -22 -7 -48 -14z m142 -126 c545
-298 948 -640 1191 -1010 62 -94 163 -278 156 -284 -2 -2 -26 12 -54 31 -230
164 -589 297 -1156 428 -27 6 -28 9 -28 69 0 170 -119 363 -272 440 l-55 28
43 65 c45 67 84 173 84 228 0 27 6 46 15 46 1 0 35 -18 76 -41z"/>
<path d="M14045 32281 c-87 -23 -167 -88 -207 -170 -35 -69 -33 -197 4 -267
27 -52 86 -112 135 -138 46 -23 133 -35 191 -26 68 11 129 47 180 105 129 147
81 379 -98 470 -55 28 -152 40 -205 26z m170 -85 c90 -41 135 -114 135 -218 0
-194 -220 -303 -378 -187 -79 58 -116 192 -79 282 36 85 129 147 222 147 31 0
69 -9 100 -24z"/>
<path d="M26775 32281 c-139 -37 -235 -159 -235 -300 0 -79 24 -142 76 -200
65 -72 134 -103 229 -103 61 0 85 5 130 26 230 113 233 436 4 552 -54 27 -152
39 -204 25z m170 -85 c90 -41 135 -114 135 -218 0 -241 -320 -325 -440 -115
-24 43 -30 63 -30 115 0 34 6 77 13 95 36 85 129 147 222 147 31 0 69 -9 100
-24z"/>
<path d="M16181 32049 c-196 -98 -228 -352 -62 -501 93 -83 221 -100 336 -43
106 52 168 155 167 280 -1 87 -31 153 -98 214 -64 58 -124 81 -214 81 -55 0
-78 -6 -129 -31z m247 -61 c55 -26 99 -80 118 -147 27 -90 1 -175 -74 -243
-50 -45 -99 -61 -172 -56 -197 14 -290 248 -156 394 74 82 181 101 284 52z"/>
<path d="M24532 32063 c-61 -21 -145 -102 -171 -164 -45 -103 -24 -239 50
-323 112 -127 306 -140 430 -28 166 149 134 403 -62 501 -53 26 -73 31 -133
30 -39 0 -90 -7 -114 -16z m179 -59 c147 -43 214 -220 133 -351 -56 -90 -179
-136 -279 -103 -48 16 -110 72 -138 124 -65 125 11 294 150 332 63 17 70 17
134 -2z"/>
<path d="M20366 31704 c-246 -60 -415 -306 -378 -551 39 -250 243 -426 492
-426 249 0 453 176 492 426 52 337 -272 632 -606 551z m288 -92 c300 -140 343
-535 81 -734 -80 -61 -144 -81 -255 -81 -111 0 -175 20 -255 81 -214 162 -233
469 -40 651 54 52 130 95 192 111 21 5 77 8 125 6 71 -3 98 -9 152 -34z"/>
<path d="M13646 31516 c-122 -52 -191 -154 -190 -286 0 -122 57 -215 166 -269
118 -59 262 -37 353 54 90 90 115 234 61 347 -69 146 -245 215 -390 154z m209
-65 c23 -10 59 -39 82 -65 119 -135 53 -339 -126 -386 -145 -38 -291 82 -291
239 0 163 186 280 335 212z"/>
<path d="M27103 31522 c-131 -47 -205 -152 -205 -294 0 -117 68 -223 177 -274
78 -37 182 -34 264 7 68 34 130 101 152 166 22 62 17 170 -9 228 -66 145 -234
219 -379 167z m223 -88 c201 -124 115 -435 -121 -438 -206 -3 -317 236 -182
390 57 65 105 85 188 82 53 -3 76 -10 115 -34z"/>
<path d="M16680 31236 c-118 -33 -245 -135 -302 -242 -152 -284 4 -637 317
-719 257 -66 532 98 601 359 18 68 18 178 -1 251 -43 162 -171 295 -333 345
-74 23 -210 26 -282 6z m211 -56 c88 -17 170 -63 237 -134 86 -92 107 -150
107 -291 0 -103 -2 -114 -32 -178 -154 -325 -611 -331 -770 -9 -37 75 -38 78
-38 191 0 110 2 119 32 182 57 116 183 214 305 238 61 12 97 12 159 1z"/>
<path d="M23990 31227 c-166 -56 -291 -193 -329 -357 -82 -356 253 -686 604
-595 221 58 374 254 375 480 0 139 -46 251 -145 351 -99 101 -206 144 -355
144 -61 0 -103 -7 -150 -23z m230 -47 c130 -25 254 -120 313 -239 30 -63 32
-72 32 -182 0 -113 -1 -116 -38 -191 -94 -191 -305 -281 -509 -218 -120 37
-205 111 -262 230 -29 61 -31 72 -31 175 1 142 22 199 107 291 107 114 244
161 388 134z"/>
<path d="M13489 30676 c-127 -34 -212 -130 -234 -263 -9 -57 18 -155 58 -212
137 -193 432 -161 530 58 29 63 29 178 1 241 -42 92 -111 149 -211 175 -67 18
-83 18 -144 1z m179 -85 c87 -45 140 -143 129 -241 -22 -188 -244 -275 -387
-153 -60 52 -84 104 -84 183 0 179 183 292 342 211z"/>
<path d="M27323 30675 c-97 -27 -166 -85 -207 -175 -28 -63 -28 -178 1 -241
122 -270 505 -237 579 50 18 72 13 122 -20 196 -33 73 -69 111 -139 144 -76
37 -145 45 -214 26z m183 -83 c84 -43 128 -117 128 -212 0 -145 -121 -254
-264 -237 -188 22 -275 244 -153 387 75 87 192 112 289 62z"/>
<path d="M20425 30493 c-56 -259 -197 -448 -439 -588 -15 -9 -16 -15 -6 -55
l11 -45 489 0 489 0 11 45 c10 40 9 46 -6 55 -241 139 -385 333 -439 588 -5
25 -9 27 -55 27 -46 0 -50 -2 -55 -27z"/>
<path d="M18805 30224 c-27 -7 -77 -13 -110 -13 l-60 -1 -57 -118 c-75 -155
-170 -269 -298 -353 l-23 -15 18 -48 c15 -39 22 -47 39 -42 52 12 544 78 766
101 135 15 247 28 249 30 2 2 6 24 8 49 5 38 3 47 -13 52 -60 20 -208 101
-261 144 -54 43 -147 143 -193 206 -14 19 -18 20 -65 8z"/>
<path d="M22060 30179 c-88 -121 -216 -223 -360 -286 l-75 -33 1 -45 c0 -24 2
-47 5 -49 2 -2 114 -16 249 -30 213 -23 686 -86 761 -102 23 -4 28 0 44 42
l18 48 -24 15 c-124 82 -220 196 -297 353 l-57 118 -55 0 c-51 0 -96 8 -145
23 -17 6 -29 -4 -65 -54z"/>
<path d="M16973 30079 l-33 -10 0 -97 c0 -116 -17 -203 -60 -306 -40 -96 -97
-184 -166 -257 l-55 -57 21 -41 c11 -23 25 -41 30 -41 5 0 87 22 182 49 157
44 462 122 661 167 l77 18 0 51 0 52 -52 12 c-83 19 -226 94 -303 158 -85 72
-152 154 -200 244 -38 72 -43 75 -102 58z"/>
<path d="M23885 30021 c-48 -90 -115 -172 -200 -244 -77 -64 -220 -139 -302
-158 l-53 -12 0 -52 0 -51 78 -18 c205 -47 494 -120 655 -166 97 -27 182 -50
187 -50 5 0 19 19 31 41 l21 42 -45 46 c-154 159 -226 325 -234 543 l-6 128
-36 10 c-20 5 -41 10 -48 10 -7 0 -28 -31 -48 -69z"/>
<path d="M13521 29744 c-114 -30 -217 -107 -283 -208 -131 -203 -94 -484 84
-641 280 -246 719 -111 813 250 67 258 -95 531 -356 600 -68 19 -188 18 -258
-1z m321 -96 c92 -46 157 -112 201 -206 30 -63 32 -74 32 -177 0 -103 -2 -114
-32 -177 -44 -93 -109 -160 -201 -205 -66 -33 -85 -38 -167 -41 -143 -7 -238
31 -334 133 -155 164 -155 416 0 580 98 104 177 136 325 132 94 -2 106 -5 176
-39z"/>
<path d="M27186 29749 c-74 -18 -164 -69 -223 -127 -200 -197 -203 -510 -7
-706 224 -223 596 -185 766 78 182 282 35 667 -287 751 -64 16 -187 18 -249 4z
m311 -100 c37 -19 85 -55 118 -90 160 -168 162 -417 4 -584 -96 -101 -191
-140 -333 -133 -76 3 -102 9 -159 35 -89 42 -168 121 -210 210 -30 64 -32 75
-32 178 0 102 2 115 31 175 106 222 369 316 581 209z"/>
<path d="M15519 29330 c-48 -36 -124 -68 -187 -80 -55 -11 -63 -16 -68 -39
-29 -142 -105 -308 -185 -403 -21 -26 -39 -50 -39 -55 0 -5 13 -24 29 -43 l28
-34 146 62 c208 89 437 180 633 252 93 34 172 65 177 69 4 4 4 28 1 54 -6 45
-8 47 -39 47 -94 0 -299 75 -410 150 -22 14 -45 29 -50 32 -6 4 -22 -2 -36
-12z"/>
<path d="M25340 29298 c-112 -72 -305 -138 -403 -138 -21 0 -25 -6 -31 -47 -3
-26 -3 -50 1 -54 5 -4 85 -35 178 -69 183 -67 466 -180 658 -262 l120 -52 29
34 c15 19 28 38 28 43 0 5 -18 29 -39 55 -81 96 -156 260 -186 405 -3 17 -12
27 -23 27 -44 0 -142 34 -197 69 l-60 37 -75 -48z"/>
<path d="M20002 28882 c-418 -155 -470 -177 -450 -187 13 -7 227 -88 476 -180
l452 -168 453 168 c248 92 462 173 475 180 21 10 -30 31 -445 185 -257 95
-472 175 -478 176 -5 2 -223 -76 -483 -174z"/>
<path d="M18847 28915 c-56 -21 -117 -69 -150 -117 -104 -156 -51 -357 118
-446 42 -22 63 -27 130 -27 130 0 223 57 277 170 52 110 34 241 -44 330 -59
66 -125 98 -218 102 -49 2 -88 -2 -113 -12z m152 -56 c218 -46 258 -344 59
-443 -125 -62 -267 -15 -324 109 -60 129 3 280 136 325 65 23 65 23 129 9z"/>
<path d="M21930 28921 c-55 -17 -110 -52 -148 -96 -133 -151 -78 -393 107
-479 70 -32 190 -29 256 6 112 59 170 155 169 278 0 89 -30 156 -95 220 -68
66 -199 98 -289 71z m191 -81 c43 -22 96 -81 115 -126 8 -19 14 -54 14 -80 0
-142 -99 -244 -236 -244 -187 0 -303 196 -209 356 64 109 204 151 316 94z"/>
<path d="M16998 28372 c-269 -189 -362 -259 -350 -264 9 -3 114 -16 232 -28
118 -12 313 -32 433 -45 l219 -24 181 126 c504 350 571 398 557 400 -36 6
-874 93 -888 92 -10 0 -182 -116 -384 -257z"/>
<path d="M23125 28584 c-220 -23 -411 -44 -425 -46 -26 -3 -29 -1 547 -401
l181 -126 214 23 c117 13 312 34 433 46 121 12 228 25 237 28 13 5 -80 75
-352 265 -308 213 -376 257 -403 256 -17 -1 -212 -21 -432 -45z"/>
<path d="M15862 28100 c-184 -93 -229 -324 -91 -475 148 -161 404 -124 501 74
19 37 23 63 23 131 0 76 -3 91 -30 139 -59 107 -151 161 -275 161 -54 0 -78
-6 -128 -30z m253 -65 c140 -82 160 -278 39 -385 -67 -59 -146 -75 -235 -48
-136 40 -203 213 -132 339 32 57 92 106 144 120 56 14 136 3 184 -26z"/>
<path d="M24833 28100 c-186 -94 -231 -322 -93 -473 66 -72 131 -101 225 -101
94 0 159 29 225 101 136 148 92 380 -90 475 -34 17 -65 24 -125 26 -73 3 -85
1 -142 -28z m208 -44 c175 -62 217 -290 76 -411 -51 -44 -104 -59 -181 -52
-172 15 -267 220 -171 366 61 92 177 133 276 97z"/>
<path d="M19955 27849 c-2463 -111 -4830 -1035 -6740 -2630 -270 -225 -432
-375 -755 -698 -592 -592 -993 -1081 -1445 -1761 -1034 -1556 -1669 -3354
-1840 -5205 -36 -392 -40 -508 -40 -1060 0 -642 15 -908 81 -1425 288 -2273
1249 -4380 2791 -6118 187 -212 589 -620 803 -816 1893 -1732 4257 -2763 6790
-2961 2063 -161 4127 246 5970 1176 936 472 1791 1064 2580 1785 315 288 717
708 1006 1049 1471 1738 2392 3903 2618 6155 45 449 51 578 51 1160 0 637 -14
890 -81 1420 -229 1831 -913 3594 -1982 5110 -237 335 -552 732 -831 1045
-159 179 -725 744 -901 899 -648 573 -1312 1047 -2040 1454 -1698 949 -3601
1439 -5550 1430 -168 0 -386 -5 -485 -9z m1270 -338 c783 -61 1430 -170 2123
-357 845 -228 1699 -574 2457 -997 731 -407 1380 -869 2025 -1442 188 -167
690 -669 855 -855 842 -950 1477 -1952 1960 -3092 859 -2026 1084 -4312 638
-6483 -657 -3202 -2721 -5961 -5628 -7523 -1236 -663 -2641 -1093 -4040 -1236
-426 -44 -570 -50 -1130 -50 -589 -1 -752 7 -1225 60 -1985 219 -3881 984
-5475 2207 -837 643 -1597 1422 -2222 2278 -135 185 -424 621 -540 814 -214
356 -468 845 -628 1206 -790 1786 -1090 3733 -875 5679 237 2141 1107 4175
2501 5844 226 271 379 437 674 731 556 557 1047 961 1682 1385 1653 1104 3504
1722 5513 1840 194 11 1159 5 1335 -9z"/>
<path d="M20050 26430 c-1840 -88 -3561 -652 -5075 -1665 -580 -388 -1023
-752 -1520 -1249 -336 -337 -556 -585 -826 -932 -1129 -1452 -1835 -3188
-2034 -5003 -65 -597 -73 -1366 -20 -1961 150 -1677 718 -3273 1663 -4670
1271 -1883 3157 -3286 5313 -3955 1257 -390 2592 -525 3909 -394 1797 178
3501 841 4957 1930 708 530 1368 1177 1906 1868 1141 1468 1837 3179 2041
5016 50 447 71 1148 47 1586 -74 1359 -402 2632 -990 3834 -492 1008 -1113
1877 -1906 2671 -494 494 -937 860 -1495 1236 -1481 997 -3146 1563 -4930
1678 -230 15 -818 20 -1040 10z m910 -330 c669 -37 1252 -124 1873 -281 2688
-680 4979 -2520 6236 -5009 798 -1579 1142 -3343 996 -5103 -166 -1991 -946
-3871 -2244 -5407 -271 -320 -697 -755 -1001 -1020 -995 -870 -2095 -1503
-3324 -1915 -755 -252 -1507 -400 -2376 -467 -219 -17 -1050 -17 -1270 0 -878
66 -1588 206 -2370 464 -1151 380 -2213 972 -3160 1762 -408 341 -866 800
-1213 1215 -1196 1430 -1943 3144 -2171 4981 -96 774 -97 1564 -1 2350 203
1657 840 3235 1850 4579 744 990 1651 1815 2703 2458 446 273 971 535 1460
729 964 384 1972 604 3027 663 210 12 775 12 985 1z"/>
<path d="M23890 23785 c-536 -558 -1029 -1071 -1095 -1141 l-121 -127 -184 61
c-628 206 -1241 311 -1915 328 -698 18 -1502 -102 -2186 -325 l-184 -61 -66
68 c-37 37 -423 441 -860 897 -436 457 -894 935 -1017 1062 l-224 233 -67 -37
c-36 -20 -140 -82 -231 -137 -1012 -610 -1895 -1382 -2616 -2286 -1088 -1365
-1767 -2994 -1964 -4715 -71 -626 -78 -1326 -20 -1955 164 -1760 824 -3346
2005 -4820 168 -209 383 -460 394 -460 11 0 1331 1346 1331 1357 0 5 -41 49
-91 98 -50 50 -143 149 -208 220 -1133 1262 -1775 3063 -1681 4721 34 598 115
1134 252 1664 44 174 157 543 185 607 l18 43 458 -465 459 -465 -31 -128 c-59
-246 -103 -514 -133 -802 -20 -196 -17 -921 5 -1125 65 -594 192 -1132 392
-1650 619 -1608 1847 -2900 3404 -3582 236 -103 582 -228 803 -289 l58 -15 2
-802 3 -802 927 -3 928 -2 2 697 3 698 50 2 c170 8 395 28 555 48 173 23 504
80 521 90 9 6 158 -145 1478 -1495 563 -575 1028 -1046 1035 -1048 29 -6 567
263 851 426 1001 574 1894 1337 2610 2232 654 817 1223 1828 1573 2793 479
1318 645 2822 471 4267 -299 2492 -1567 4710 -3594 6286 -295 230 -678 492
-1000 683 -228 136 -290 171 -301 170 -5 0 -448 -457 -984 -1014z m1201 519
c1134 -679 2129 -1621 2873 -2721 720 -1066 1209 -2285 1421 -3548 128 -763
158 -1597 85 -2360 -171 -1770 -838 -3413 -1943 -4784 l-100 -123 -493 493
c-271 271 -490 498 -486 503 3 6 56 74 118 151 1007 1265 1496 2373 1653 3745
38 333 46 487 46 920 0 418 -6 537 -41 840 -244 2108 -1391 4169 -2955 5309
l-121 88 -203 -206 c-111 -113 -396 -404 -633 -646 l-431 -440 32 -26 c18 -15
111 -90 207 -166 578 -462 1004 -923 1344 -1455 l17 -26 -476 -411 c-261 -227
-481 -414 -489 -417 -9 -3 -25 16 -46 53 -54 95 -177 278 -270 402 -254 336
-585 660 -965 941 -207 154 -243 176 -259 159 -7 -8 -258 -273 -557 -589
-1172 -1240 -1939 -2049 -1948 -2054 -4 -3 -597 602 -1316 1344 l-1308 1350
-66 -47 c-283 -200 -593 -470 -824 -718 -767 -823 -1190 -1781 -1288 -2915
-26 -301 -15 -747 27 -1045 161 -1157 750 -2143 1716 -2871 440 -331 961 -610
1509 -808 86 -31 159 -56 162 -56 4 0 7 1013 7 2250 l0 2250 1550 0 1550 0 0
-465 0 -465 -950 0 -950 0 0 -600 0 -600 940 0 940 0 0 -530 0 -530 -940 0
-940 0 0 -760 0 -760 159 0 c1038 0 2165 453 3111 1250 74 63 218 197 320 298
l185 184 463 -467 c432 -435 461 -467 450 -488 -6 -12 -126 -137 -267 -278
-340 -340 -560 -521 -926 -764 -230 -152 -377 -235 -660 -375 -806 -398 -1697
-616 -2632 -647 l-203 -6 0 -694 0 -693 -600 0 -600 0 -2 767 -3 767 -55 13
c-234 58 -594 180 -855 288 -1909 795 -3279 2454 -3664 4435 -313 1615 40
3165 1022 4490 359 484 838 971 1350 1369 59 47 106 88 105 92 -5 14 -1270
1319 -1278 1319 -29 0 -527 -447 -780 -700 -1274 -1275 -2024 -2743 -2279
-4460 -110 -741 -124 -1456 -40 -2080 143 -1071 546 -2123 1172 -3060 162
-242 378 -521 541 -699 48 -52 85 -97 84 -102 -7 -18 -844 -864 -856 -864 -26
0 -362 425 -573 727 -472 675 -858 1439 -1113 2203 -223 665 -352 1311 -418
2080 -21 241 -17 1138 5 1390 68 759 206 1432 432 2110 604 1812 1788 3411
3350 4526 233 167 584 393 727 470 14 8 194 -176 1029 -1048 556 -582 1038
-1084 1069 -1117 l58 -58 138 50 c531 193 1069 313 1679 374 175 17 845 17
1020 0 585 -59 1064 -164 1591 -352 109 -38 199 -70 200 -70 4 0 2130 2195
2152 2221 13 16 29 29 37 29 7 0 77 -39 156 -86z m231 -2021 c251 -201 578
-524 807 -798 905 -1084 1522 -2444 1735 -3825 129 -838 99 -1839 -80 -2651
-136 -617 -387 -1247 -714 -1792 l-47 -77 -550 567 c-302 313 -1514 1562
-2691 2777 l-2142 2209 83 86 c46 47 359 377 696 734 336 356 615 647 618 647
3 0 39 -25 80 -56 291 -218 583 -510 800 -799 136 -180 298 -440 420 -672 36
-68 68 -125 73 -128 6 -4 1390 1182 1468 1259 l24 23 -66 107 c-374 605 -802
1107 -1304 1530 -84 71 -151 133 -150 137 8 23 803 827 812 822 6 -4 64 -49
128 -100z m-7883 -7383 l1320 -1345 1 -462 c0 -255 -3 -463 -6 -463 -19 0
-319 134 -449 200 -282 143 -533 306 -787 508 -171 136 -494 459 -629 629
-380 477 -639 996 -783 1570 -63 251 -97 473 -121 773 l-5 75 69 -70 c39 -38
664 -675 1390 -1415z"/>
<path d="M20065 21364 c-178 -19 -325 -39 -466 -65 -254 -46 -550 -113 -550
-124 1 -11 1411 -1455 1421 -1455 7 0 1332 1398 1338 1411 7 16 -461 124 -733
169 -99 16 -245 37 -325 45 -138 15 -600 28 -685 19z m690 -344 c110 -12 350
-47 405 -58 l35 -8 -365 -384 -364 -383 -388 394 c-213 217 -387 397 -388 400
0 6 159 29 335 49 102 11 599 5 730 -10z"/>
</g>
</svg>
